<svg xmlns="http://www.w3.org/2000/svg" width="800" height="533" viewBox="0 0 800 533" role="img" aria-label="Star history of utkuozdemir/pv-migrate">
<style>text{font-family:"Comic Sans MS","Chalkboard SE","Comic Neue","Marker Felt",cursive}</style>
<text x="400" y="52" font-size="26" font-weight="bold" text-anchor="middle" fill="#1f2328">Star History</text>
<rect x="100" y="70" width="228" height="34" rx="8" fill="none" stroke="#1f2328" stroke-width="2" transform="rotate(0.14 214 87)"/>
<rect x="110" y="82" width="11" height="11" rx="2" fill="#c94f35"/>
<text x="128" y="93" font-size="15" fill="#1f2328" textLength="189" lengthAdjust="spacingAndGlyphs">utkuozdemir/pv-migrate</text>
<line x1="85" y1="384.8" x2="92" y2="384.8" stroke="#1f2328" stroke-width="2"/>
<text x="79" y="389.8" font-size="15" text-anchor="end" fill="#1f2328">500</text>
<line x1="85" y1="312.6" x2="92" y2="312.6" stroke="#1f2328" stroke-width="2"/>
<text x="79" y="317.6" font-size="15" text-anchor="end" fill="#1f2328">1.0k</text>
<line x1="85" y1="240.4" x2="92" y2="240.4" stroke="#1f2328" stroke-width="2"/>
<text x="79" y="245.4" font-size="15" text-anchor="end" fill="#1f2328">1.5k</text>
<line x1="85" y1="168.2" x2="92" y2="168.2" stroke="#1f2328" stroke-width="2"/>
<text x="79" y="173.2" font-size="15" text-anchor="end" fill="#1f2328">2.0k</text>
<line x1="85" y1="96.0" x2="92" y2="96.0" stroke="#1f2328" stroke-width="2"/>
<text x="79" y="101.0" font-size="15" text-anchor="end" fill="#1f2328">2.5k</text>
<line x1="165.4" y1="457" x2="165.4" y2="464" stroke="#1f2328" stroke-width="2"/>
<text x="165.4" y="484" font-size="15" text-anchor="middle" fill="#1f2328">2020</text>
<line x1="343.2" y1="457" x2="343.2" y2="464" stroke="#1f2328" stroke-width="2"/>
<text x="343.2" y="484" font-size="15" text-anchor="middle" fill="#1f2328">2022</text>
<line x1="520.7" y1="457" x2="520.7" y2="464" stroke="#1f2328" stroke-width="2"/>
<text x="520.7" y="484" font-size="15" text-anchor="middle" fill="#1f2328">2024</text>
<line x1="698.5" y1="457" x2="698.5" y2="464" stroke="#1f2328" stroke-width="2"/>
<text x="698.5" y="484" font-size="15" text-anchor="middle" fill="#1f2328">2026</text>
<text x="426" y="515" font-size="17" text-anchor="middle" fill="#1f2328">Date</text>
<text x="26" y="276" font-size="17" text-anchor="middle" fill="#1f2328" transform="rotate(-90 26 276)">GitHub Stars</text>
<path d="M 92.0,90.0 L 91.8,111.6 L 91.5,133.2 L 92.7,154.8 L 91.9,176.4 L 90.9,197.9 L 92.6,219.5 L 91.1,241.1 L 91.4,262.7 L 92.0,284.3 L 91.4,305.9 L 90.8,327.5 L 91.9,349.1 L 91.6,370.6 L 93.1,392.2 L 92.5,413.8 L 92.5,435.4 L 92.0,457.0 L 113.5,456.0 L 135.1,457.7 L 156.6,458.2 L 178.2,457.6 L 199.7,456.1 L 221.3,456.5 L 242.8,455.9 L 264.4,457.0 L 285.9,456.2 L 307.5,456.9 L 329.0,456.7 L 350.6,455.9 L 372.1,456.2 L 393.7,456.3 L 415.2,456.9 L 436.8,455.8 L 458.3,457.4 L 479.9,457.8 L 501.4,456.0 L 523.0,456.5 L 544.5,456.1 L 566.1,458.0 L 587.6,456.3 L 609.2,456.7 L 630.7,456.3 L 652.3,456.6 L 673.8,457.8 L 695.4,458.0 L 716.9,456.0 L 738.5,457.3 L 760.0,457.0" fill="none" stroke="#1f2328" stroke-width="3" stroke-linecap="round" stroke-linejoin="round"/>
<path d="M 92.0,456.9 L 104.2,457.6 L 116.3,456.7 L 137.7,455.2 L 159.0,456.7 L 180.4,455.0 L 201.8,455.7 L 223.1,455.1 L 244.5,456.3 L 259.1,455.7 L 274.6,455.1 L 276.1,454.5 L 283.6,453.1 L 284.1,439.7 L 284.8,437.4 L 285.8,434.6 L 286.8,433.9 L 288.5,433.0 L 289.9,431.9 L 290.7,429.7 L 292.4,429.3 L 293.8,428.4 L 297.0,427.8 L 300.2,427.1 L 302.8,426.2 L 305.5,425.2 L 308.2,424.4 L 310.9,423.8 L 314.7,422.8 L 315.2,422.2 L 318.9,420.9 L 322.0,420.5 L 324.7,419.2 L 325.7,418.7 L 328.4,417.6 L 329.3,415.7 L 331.5,415.3 L 334.2,414.3 L 335.2,413.2 L 337.6,412.2 L 338.3,411.7 L 340.0,409.9 L 341.7,409.3 L 343.9,408.0 L 344.7,407.0 L 345.9,406.3 L 347.6,404.9 L 349.0,403.4 L 350.0,402.3 L 351.2,401.8 L 352.9,399.7 L 355.1,399.1 L 356.1,398.5 L 357.3,397.2 L 359.7,396.1 L 361.7,395.6 L 364.8,394.6 L 367.0,393.9 L 368.0,393.0 L 368.7,392.2 L 371.2,391.6 L 375.1,390.0 L 376.0,389.3 L 377.0,387.5 L 378.5,387.1 L 379.4,385.5 L 381.9,384.1 L 382.8,383.4 L 384.3,382.8 L 386.0,381.6 L 387.2,380.9 L 389.6,379.9 L 390.4,379.5 L 391.8,378.2 L 393.3,377.3 L 394.3,376.9 L 396.9,376.3 L 397.7,375.3 L 400.8,374.5 L 402.3,373.2 L 404.0,372.5 L 405.7,371.9 L 407.9,370.6 L 409.6,369.9 L 410.8,368.8 L 412.5,368.2 L 414.2,366.8 L 415.4,366.3 L 417.6,365.3 L 418.6,364.4 L 419.6,363.4 L 420.3,362.6 L 421.3,361.7 L 424.2,361.0 L 424.9,360.1 L 426.4,359.4 L 428.1,358.5 L 430.0,358.1 L 434.1,357.4 L 436.3,356.5 L 437.3,355.3 L 438.5,354.6 L 440.5,353.8 L 444.1,352.7 L 445.6,352.2 L 446.8,350.6 L 449.7,349.7 L 450.7,347.7 L 451.9,346.8 L 454.1,346.4 L 455.8,345.4 L 458.0,344.5 L 460.2,343.4 L 462.6,342.5 L 463.8,341.9 L 464.8,340.9 L 466.2,340.2 L 467.9,338.9 L 468.9,338.0 L 471.4,337.0 L 473.3,335.8 L 475.5,334.5 L 476.9,333.7 L 478.6,333.1 L 480.3,331.2 L 481.3,330.9 L 483.5,330.1 L 485.0,327.5 L 485.9,326.8 L 488.6,326.2 L 489.8,325.7 L 491.3,322.7 L 492.3,322.4 L 493.7,321.6 L 496.6,320.7 L 497.1,320.1 L 498.1,319.2 L 501.7,317.9 L 502.2,317.2 L 503.9,316.5 L 504.9,314.6 L 505.6,313.5 L 506.9,312.7 L 509.0,311.4 L 510.5,310.9 L 512.2,310.0 L 513.4,309.0 L 514.6,307.5 L 516.1,307.3 L 517.8,303.9 L 520.7,303.4 L 522.2,302.6 L 523.1,301.6 L 524.6,300.8 L 525.3,300.3 L 527.3,299.0 L 528.7,297.7 L 529.7,296.3 L 530.9,295.7 L 531.9,294.5 L 534.1,293.4 L 534.6,292.8 L 536.3,292.0 L 537.0,290.8 L 539.9,289.6 L 541.6,288.5 L 542.6,287.6 L 543.3,286.8 L 546.5,285.0 L 547.0,277.4 L 548.0,273.3 L 549.2,271.3 L 550.6,270.1 L 551.1,269.3 L 553.3,268.0 L 554.0,263.8 L 555.7,262.1 L 556.5,261.5 L 557.7,260.5 L 558.7,257.0 L 559.1,256.3 L 561.1,255.3 L 561.8,252.2 L 562.5,251.2 L 565.0,249.6 L 565.9,248.6 L 567.2,248.2 L 568.1,246.9 L 569.8,245.0 L 571.8,243.7 L 572.5,242.9 L 574.5,241.7 L 575.9,240.8 L 577.6,240.1 L 578.3,239.7 L 579.1,238.4 L 580.3,237.5 L 581.8,236.6 L 582.5,235.5 L 583.7,234.6 L 584.7,232.5 L 585.9,231.2 L 587.6,230.0 L 588.8,229.6 L 589.8,228.6 L 591.0,227.8 L 592.9,226.8 L 593.9,226.1 L 595.6,225.4 L 596.6,224.2 L 598.5,222.9 L 599.7,221.6 L 600.5,220.5 L 601.5,219.5 L 603.4,218.6 L 604.4,217.0 L 606.1,215.9 L 607.8,214.4 L 609.2,213.1 L 610.2,212.7 L 611.2,211.5 L 613.9,209.2 L 614.6,208.9 L 616.0,207.5 L 616.8,206.8 L 618.7,205.9 L 619.9,205.3 L 620.9,205.0 L 622.1,203.6 L 623.3,202.9 L 624.1,202.0 L 625.3,200.7 L 627.0,199.7 L 627.7,198.8 L 630.1,196.9 L 631.4,195.6 L 632.3,194.9 L 634.3,193.5 L 635.5,191.3 L 636.0,188.6 L 637.0,186.7 L 638.2,185.1 L 638.9,183.9 L 640.1,182.9 L 641.1,181.8 L 642.3,180.5 L 644.0,179.3 L 646.0,178.6 L 647.4,177.6 L 648.4,177.2 L 649.4,176.1 L 651.3,175.3 L 653.0,174.3 L 655.2,173.5 L 657.4,172.7 L 657.9,172.4 L 659.1,170.9 L 663.5,170.4 L 665.9,169.2 L 667.4,168.3 L 668.8,167.8 L 670.8,166.8 L 671.2,165.9 L 674.2,164.9 L 674.6,164.2 L 676.6,163.0 L 677.8,162.3 L 679.0,160.8 L 680.5,160.4 L 682.7,159.4 L 685.6,158.7 L 686.8,157.8 L 687.8,157.2 L 690.2,155.6 L 690.7,154.9 L 691.7,154.3 L 693.4,153.6 L 694.6,152.7 L 696.8,152.0 L 698.0,150.6 L 699.0,150.0 L 700.2,149.3 L 701.9,147.8 L 703.6,146.8 L 704.6,143.5 L 705.3,142.4 L 706.5,141.3 L 707.2,140.5 L 708.7,138.9 L 710.1,138.0 L 711.1,137.7 L 712.1,135.9 L 713.8,134.6 L 715.3,133.7 L 717.0,133.1 L 718.4,132.8 L 719.4,131.8 L 721.3,131.1 L 722.6,130.1 L 724.0,129.4 L 725.0,128.9 L 726.9,126.9 L 728.4,126.0 L 729.6,125.3 L 730.6,124.6 L 732.3,123.9 L 733.0,123.6 L 735.7,122.7 L 738.4,121.7 L 738.8,119.5 L 740.3,117.7 L 742.2,117.1 L 743.2,116.4 L 744.9,115.9 L 746.1,115.3 L 747.8,114.2 L 749.3,113.5 L 752.7,112.5 L 753.4,112.5 L 754.2,111.9 L 755.4,111.5 L 756.1,110.9 L 757.3,110.7 L 758.3,110.3 L 759.5,109.4 L 760.0,109.4" fill="none" stroke="#c94f35" stroke-width="3" stroke-linecap="round" stroke-linejoin="round"/>
<circle cx="92.0" cy="456.9" r="4" fill="#c94f35"/>
<circle cx="290.9" cy="429.6" r="4" fill="#c94f35"/>
<circle cx="324.0" cy="419.3" r="4" fill="#c94f35"/>
<circle cx="345.4" cy="406.5" r="4" fill="#c94f35"/>
<circle cx="367.5" cy="393.5" r="4" fill="#c94f35"/>
<circle cx="388.2" cy="380.6" r="4" fill="#c94f35"/>
<circle cx="409.6" cy="369.9" r="4" fill="#c94f35"/>
<circle cx="427.6" cy="358.7" r="4" fill="#c94f35"/>
<circle cx="453.6" cy="346.5" r="4" fill="#c94f35"/>
<circle cx="475.5" cy="334.5" r="4" fill="#c94f35"/>
<circle cx="495.9" cy="320.8" r="4" fill="#c94f35"/>
<circle cx="514.2" cy="308.4" r="4" fill="#c94f35"/>
<circle cx="533.4" cy="294.1" r="4" fill="#c94f35"/>
<circle cx="550.4" cy="270.3" r="4" fill="#c94f35"/>
<circle cx="565.5" cy="248.8" r="4" fill="#c94f35"/>
<circle cx="582.0" cy="236.1" r="4" fill="#c94f35"/>
<circle cx="598.8" cy="222.6" r="4" fill="#c94f35"/>
<circle cx="615.8" cy="207.8" r="4" fill="#c94f35"/>
<circle cx="632.1" cy="195.1" r="4" fill="#c94f35"/>
<circle cx="647.9" cy="177.3" r="4" fill="#c94f35"/>
<circle cx="670.8" cy="166.8" r="4" fill="#c94f35"/>
<circle cx="690.7" cy="154.9" r="4" fill="#c94f35"/>
<circle cx="707.2" cy="140.5" r="4" fill="#c94f35"/>
<circle cx="724.5" cy="129.1" r="4" fill="#c94f35"/>
<circle cx="743.2" cy="116.4" r="4" fill="#c94f35"/>
<circle cx="760.0" cy="109.4" r="4" fill="#c94f35"/>
<text x="790" y="529" font-size="12" text-anchor="end" fill="#818b98">updated through 2026-09-11</text>
</svg>
