<svg xmlns="http://www.w3.org/2000/svg" width="800" height="533" viewBox="0 0 800 533" role="img" aria-label="Star history of utkuozdemir/pv-migrate">
<style>text{font-family:"Comic Sans MS","Chalkboard SE","Comic Neue","Marker Felt",cursive}</style>
<text x="400" y="52" font-size="26" font-weight="bold" text-anchor="middle" fill="#1f2328">Star History</text>
<rect x="100" y="70" width="228" height="34" rx="8" fill="none" stroke="#1f2328" stroke-width="2" transform="rotate(0.14 214 87)"/>
<rect x="110" y="82" width="11" height="11" rx="2" fill="#c94f35"/>
<text x="128" y="93" font-size="15" fill="#1f2328" textLength="189" lengthAdjust="spacingAndGlyphs">utkuozdemir/pv-migrate</text>
<line x1="85" y1="384.8" x2="92" y2="384.8" stroke="#1f2328" stroke-width="2"/>
<text x="79" y="389.8" font-size="15" text-anchor="end" fill="#1f2328">500</text>
<line x1="85" y1="312.6" x2="92" y2="312.6" stroke="#1f2328" stroke-width="2"/>
<text x="79" y="317.6" font-size="15" text-anchor="end" fill="#1f2328">1.0k</text>
<line x1="85" y1="240.4" x2="92" y2="240.4" stroke="#1f2328" stroke-width="2"/>
<text x="79" y="245.4" font-size="15" text-anchor="end" fill="#1f2328">1.5k</text>
<line x1="85" y1="168.2" x2="92" y2="168.2" stroke="#1f2328" stroke-width="2"/>
<text x="79" y="173.2" font-size="15" text-anchor="end" fill="#1f2328">2.0k</text>
<line x1="85" y1="96.0" x2="92" y2="96.0" stroke="#1f2328" stroke-width="2"/>
<text x="79" y="101.0" font-size="15" text-anchor="end" fill="#1f2328">2.5k</text>
<line x1="165.4" y1="457" x2="165.4" y2="464" stroke="#1f2328" stroke-width="2"/>
<text x="165.4" y="484" font-size="15" text-anchor="middle" fill="#1f2328">2020</text>
<line x1="343.0" y1="457" x2="343.0" y2="464" stroke="#1f2328" stroke-width="2"/>
<text x="343.0" y="484" font-size="15" text-anchor="middle" fill="#1f2328">2022</text>
<line x1="520.4" y1="457" x2="520.4" y2="464" stroke="#1f2328" stroke-width="2"/>
<text x="520.4" y="484" font-size="15" text-anchor="middle" fill="#1f2328">2024</text>
<line x1="698.0" y1="457" x2="698.0" y2="464" stroke="#1f2328" stroke-width="2"/>
<text x="698.0" y="484" font-size="15" text-anchor="middle" fill="#1f2328">2026</text>
<text x="426" y="515" font-size="17" text-anchor="middle" fill="#1f2328">Date</text>
<text x="26" y="276" font-size="17" text-anchor="middle" fill="#1f2328" transform="rotate(-90 26 276)">GitHub Stars</text>
<path d="M 92.0,90.0 L 91.8,111.6 L 91.5,133.2 L 92.7,154.8 L 91.9,176.4 L 90.9,197.9 L 92.6,219.5 L 91.1,241.1 L 91.4,262.7 L 92.0,284.3 L 91.4,305.9 L 90.8,327.5 L 91.9,349.1 L 91.6,370.6 L 93.1,392.2 L 92.5,413.8 L 92.5,435.4 L 92.0,457.0 L 113.5,456.0 L 135.1,457.7 L 156.6,458.2 L 178.2,457.6 L 199.7,456.1 L 221.3,456.5 L 242.8,455.9 L 264.4,457.0 L 285.9,456.2 L 307.5,456.9 L 329.0,456.7 L 350.6,455.9 L 372.1,456.2 L 393.7,456.3 L 415.2,456.9 L 436.8,455.8 L 458.3,457.4 L 479.9,457.8 L 501.4,456.0 L 523.0,456.5 L 544.5,456.1 L 566.1,458.0 L 587.6,456.3 L 609.2,456.7 L 630.7,456.3 L 652.3,456.6 L 673.8,457.8 L 695.4,458.0 L 716.9,456.0 L 738.5,457.3 L 760.0,457.0" fill="none" stroke="#1f2328" stroke-width="3" stroke-linecap="round" stroke-linejoin="round"/>
<path d="M 92.0,456.9 L 104.2,457.6 L 116.3,456.7 L 137.6,455.2 L 159.0,456.7 L 180.3,455.0 L 201.7,455.7 L 223.0,455.1 L 244.4,456.3 L 258.9,455.7 L 274.5,455.1 L 275.9,454.5 L 283.5,453.1 L 284.0,439.7 L 284.7,437.4 L 285.7,434.6 L 286.6,433.9 L 288.3,433.0 L 289.8,431.9 L 290.5,429.7 L 292.5,429.1 L 293.7,428.4 L 296.8,427.8 L 300.0,427.1 L 302.7,426.2 L 305.4,425.2 L 308.0,424.4 L 310.7,423.8 L 314.6,422.8 L 315.1,422.2 L 318.7,420.9 L 321.9,420.5 L 323.8,419.3 L 326.2,418.3 L 328.2,417.6 L 329.2,415.7 L 331.4,415.3 L 334.0,414.3 L 335.0,413.2 L 337.4,412.2 L 338.4,411.4 L 339.9,409.9 L 341.6,409.3 L 343.7,408.0 L 344.5,407.0 L 345.7,406.3 L 347.4,404.9 L 348.8,403.4 L 349.8,402.3 L 351.0,401.8 L 352.7,399.7 L 354.9,399.1 L 356.1,398.2 L 357.1,397.2 L 359.5,396.1 L 361.5,395.6 L 364.6,394.6 L 366.8,393.9 L 367.8,393.0 L 369.3,392.0 L 372.2,391.2 L 374.4,390.1 L 375.8,389.3 L 376.8,387.5 L 378.3,387.1 L 380.7,385.2 L 381.9,383.8 L 382.6,383.4 L 384.1,382.8 L 385.8,381.6 L 387.0,380.9 L 389.4,379.9 L 390.6,379.2 L 391.6,378.2 L 393.1,377.3 L 394.0,376.9 L 396.7,376.3 L 398.4,375.1 L 401.1,374.3 L 402.1,373.2 L 403.8,372.5 L 405.5,371.9 L 407.7,370.6 L 409.6,369.8 L 410.6,368.8 L 413.2,367.6 L 414.0,366.8 L 415.2,366.3 L 417.4,365.3 L 418.8,363.9 L 419.8,363.1 L 420.3,362.4 L 421.5,361.6 L 423.9,361.0 L 424.7,360.1 L 426.1,359.4 L 427.8,358.5 L 431.0,357.5 L 434.4,357.1 L 436.1,356.5 L 437.1,355.3 L 438.3,354.6 L 443.4,353.6 L 444.1,352.6 L 445.8,351.4 L 447.0,350.4 L 449.7,349.3 L 450.4,347.7 L 451.6,346.8 L 454.3,346.0 L 457.5,344.9 L 458.2,343.9 L 460.9,343.2 L 462.3,342.5 L 463.5,341.9 L 464.5,340.9 L 466.5,339.5 L 467.7,338.9 L 470.8,337.4 L 471.6,336.6 L 473.0,335.8 L 475.4,334.3 L 477.9,333.4 L 479.1,332.7 L 480.1,331.2 L 482.3,330.4 L 483.7,328.3 L 484.4,328.1 L 485.7,326.8 L 488.3,326.2 L 489.8,325.5 L 491.0,322.7 L 492.2,322.1 L 494.4,321.4 L 496.3,320.7 L 497.6,319.5 L 498.8,318.8 L 501.5,317.9 L 502.4,317.1 L 503.9,316.2 L 504.6,314.6 L 505.6,313.3 L 507.8,312.2 L 508.7,311.4 L 510.4,310.6 L 511.9,310.0 L 513.4,308.7 L 514.3,307.5 L 516.0,306.8 L 517.5,303.9 L 520.4,303.4 L 522.1,302.3 L 523.1,301.5 L 524.3,300.8 L 525.5,299.7 L 527.0,299.0 L 528.4,297.7 L 529.4,296.3 L 531.1,295.3 L 533.0,294.1 L 534.0,293.0 L 535.5,292.4 L 536.0,292.0 L 537.2,290.5 L 539.6,289.6 L 542.0,288.2 L 542.5,287.2 L 543.5,286.5 L 546.2,285.0 L 546.9,276.4 L 547.9,272.9 L 548.8,271.3 L 550.3,270.1 L 551.5,268.7 L 553.0,268.0 L 553.9,263.5 L 555.4,262.1 L 556.6,260.9 L 557.3,260.5 L 558.3,257.0 L 559.3,256.1 L 560.7,255.3 L 561.5,252.2 L 563.2,250.9 L 563.9,249.9 L 565.8,248.5 L 567.1,247.9 L 568.5,245.2 L 570.0,244.9 L 571.4,243.7 L 573.4,242.1 L 574.1,241.7 L 576.3,240.7 L 576.8,240.3 L 578.0,239.7 L 579.0,238.2 L 580.7,237.1 L 581.4,236.6 L 582.6,235.2 L 583.6,234.2 L 584.3,232.5 L 585.8,231.0 L 587.2,230.0 L 588.9,229.1 L 589.7,228.4 L 591.4,227.5 L 592.6,226.8 L 593.5,226.1 L 595.5,225.1 L 597.7,223.1 L 598.4,222.6 L 599.4,221.6 L 600.6,219.9 L 601.3,219.3 L 603.0,218.6 L 604.5,216.7 L 606.2,215.6 L 607.6,213.7 L 609.8,212.7 L 610.3,212.1 L 612.3,210.9 L 613.5,209.2 L 614.4,208.6 L 615.9,207.3 L 616.9,206.5 L 618.8,205.7 L 619.5,205.3 L 620.8,204.7 L 621.7,203.6 L 623.2,202.3 L 624.4,201.6 L 625.1,200.5 L 627.1,199.0 L 629.0,198.1 L 630.0,196.5 L 631.2,195.2 L 632.9,194.8 L 634.4,193.0 L 635.1,191.3 L 636.1,187.3 L 637.3,185.8 L 638.0,184.5 L 638.7,183.7 L 640.0,182.6 L 641.4,180.8 L 643.1,179.9 L 643.6,179.3 L 646.8,178.0 L 647.2,177.4 L 649.0,176.1 L 649.7,175.9 L 651.9,174.4 L 654.1,173.8 L 655.3,173.3 L 657.0,172.7 L 658.2,171.8 L 659.4,170.7 L 663.5,169.9 L 665.7,168.6 L 666.9,168.3 L 669.4,167.2 L 670.3,166.8 L 671.5,165.6 L 673.7,164.9 L 674.7,163.9 L 676.9,162.7 L 677.9,161.3 L 680.1,160.4 L 681.0,159.8 L 683.7,159.2 L 685.4,158.5 L 687.3,157.2 L 688.1,156.4 L 689.8,155.6 L 690.5,154.8 L 692.4,153.9 L 694.1,152.7 L 696.3,152.0 L 697.1,151.4 L 697.5,150.6 L 699.5,149.7 L 700.7,148.4 L 702.7,147.3 L 703.6,144.7 L 704.8,142.4 L 705.8,141.5 L 706.5,140.6 L 707.5,139.9 L 708.2,138.9 L 710.7,137.7 L 711.2,136.3 L 712.6,135.1 L 713.3,134.6 L 714.8,133.7 L 718.0,132.8 L 718.9,131.8 L 720.6,131.2 L 721.6,130.4 L 723.3,129.6 L 724.5,128.9 L 725.3,127.8 L 727.2,126.8 L 727.9,126.0 L 729.9,124.9 L 730.4,124.4 L 732.3,123.7 L 734.0,122.9 L 736.4,122.4 L 737.9,121.7 L 738.9,119.0 L 739.8,117.7 L 742.0,116.9 L 742.7,116.4 L 745.2,115.6 L 746.9,115.1 L 748.8,113.5 L 750.0,113.2 L 753.0,112.5 L 753.4,112.0 L 754.2,111.9 L 755.6,110.9 L 756.1,110.7 L 757.3,110.6 L 758.3,110.2 L 759.0,109.4 L 760.0,109.3" fill="none" stroke="#c94f35" stroke-width="3" stroke-linecap="round" stroke-linejoin="round"/>
<circle cx="92.0" cy="456.9" r="4" fill="#c94f35"/>
<circle cx="291.3" cy="429.4" r="4" fill="#c94f35"/>
<circle cx="324.5" cy="419.2" r="4" fill="#c94f35"/>
<circle cx="345.7" cy="406.3" r="4" fill="#c94f35"/>
<circle cx="367.6" cy="393.2" r="4" fill="#c94f35"/>
<circle cx="388.2" cy="380.5" r="4" fill="#c94f35"/>
<circle cx="409.6" cy="369.8" r="4" fill="#c94f35"/>
<circle cx="427.8" cy="358.5" r="4" fill="#c94f35"/>
<circle cx="453.8" cy="346.4" r="4" fill="#c94f35"/>
<circle cx="475.4" cy="334.3" r="4" fill="#c94f35"/>
<circle cx="496.3" cy="320.7" r="4" fill="#c94f35"/>
<circle cx="514.1" cy="307.8" r="4" fill="#c94f35"/>
<circle cx="533.3" cy="293.7" r="4" fill="#c94f35"/>
<circle cx="550.5" cy="269.9" r="4" fill="#c94f35"/>
<circle cx="565.8" cy="248.5" r="4" fill="#c94f35"/>
<circle cx="582.1" cy="235.5" r="4" fill="#c94f35"/>
<circle cx="598.9" cy="222.1" r="4" fill="#c94f35"/>
<circle cx="615.9" cy="207.3" r="4" fill="#c94f35"/>
<circle cx="632.9" cy="194.8" r="4" fill="#c94f35"/>
<circle cx="648.2" cy="176.9" r="4" fill="#c94f35"/>
<circle cx="670.8" cy="165.9" r="4" fill="#c94f35"/>
<circle cx="691.0" cy="154.5" r="4" fill="#c94f35"/>
<circle cx="707.3" cy="140.0" r="4" fill="#c94f35"/>
<circle cx="724.8" cy="128.2" r="4" fill="#c94f35"/>
<circle cx="743.7" cy="116.1" r="4" fill="#c94f35"/>
<circle cx="760.0" cy="109.3" r="4" fill="#c94f35"/>
<text x="790" y="529" font-size="12" text-anchor="end" fill="#818b98">updated through 2026-09-13</text>
</svg>
