<svg xmlns="http://www.w3.org/2000/svg" width="800" height="533" viewBox="0 0 800 533" role="img" aria-label="Star history of utkuozdemir/pv-migrate">
<style>text{font-family:"Comic Sans MS","Chalkboard SE","Comic Neue","Marker Felt",cursive}</style>
<text x="400" y="52" font-size="26" font-weight="bold" text-anchor="middle" fill="#1f2328">Star History</text>
<rect x="100" y="70" width="228" height="34" rx="8" fill="none" stroke="#1f2328" stroke-width="2" transform="rotate(0.14 214 87)"/>
<rect x="110" y="82" width="11" height="11" rx="2" fill="#c94f35"/>
<text x="128" y="93" font-size="15" fill="#1f2328" textLength="189" lengthAdjust="spacingAndGlyphs">utkuozdemir/pv-migrate</text>
<line x1="85" y1="384.8" x2="92" y2="384.8" stroke="#1f2328" stroke-width="2"/>
<text x="79" y="389.8" font-size="15" text-anchor="end" fill="#1f2328">500</text>
<line x1="85" y1="312.6" x2="92" y2="312.6" stroke="#1f2328" stroke-width="2"/>
<text x="79" y="317.6" font-size="15" text-anchor="end" fill="#1f2328">1.0k</text>
<line x1="85" y1="240.4" x2="92" y2="240.4" stroke="#1f2328" stroke-width="2"/>
<text x="79" y="245.4" font-size="15" text-anchor="end" fill="#1f2328">1.5k</text>
<line x1="85" y1="168.2" x2="92" y2="168.2" stroke="#1f2328" stroke-width="2"/>
<text x="79" y="173.2" font-size="15" text-anchor="end" fill="#1f2328">2.0k</text>
<line x1="85" y1="96.0" x2="92" y2="96.0" stroke="#1f2328" stroke-width="2"/>
<text x="79" y="101.0" font-size="15" text-anchor="end" fill="#1f2328">2.5k</text>
<line x1="165.8" y1="457" x2="165.8" y2="464" stroke="#1f2328" stroke-width="2"/>
<text x="165.8" y="484" font-size="15" text-anchor="middle" fill="#1f2328">2020</text>
<line x1="344.3" y1="457" x2="344.3" y2="464" stroke="#1f2328" stroke-width="2"/>
<text x="344.3" y="484" font-size="15" text-anchor="middle" fill="#1f2328">2022</text>
<line x1="522.6" y1="457" x2="522.6" y2="464" stroke="#1f2328" stroke-width="2"/>
<text x="522.6" y="484" font-size="15" text-anchor="middle" fill="#1f2328">2024</text>
<line x1="701.1" y1="457" x2="701.1" y2="464" stroke="#1f2328" stroke-width="2"/>
<text x="701.1" y="484" font-size="15" text-anchor="middle" fill="#1f2328">2026</text>
<text x="426" y="515" font-size="17" text-anchor="middle" fill="#1f2328">Date</text>
<text x="26" y="276" font-size="17" text-anchor="middle" fill="#1f2328" transform="rotate(-90 26 276)">GitHub Stars</text>
<path d="M 92.0,90.0 L 91.8,111.6 L 91.5,133.2 L 92.7,154.8 L 91.9,176.4 L 90.9,197.9 L 92.6,219.5 L 91.1,241.1 L 91.4,262.7 L 92.0,284.3 L 91.4,305.9 L 90.8,327.5 L 91.9,349.1 L 91.6,370.6 L 93.1,392.2 L 92.5,413.8 L 92.5,435.4 L 92.0,457.0 L 113.5,456.0 L 135.1,457.7 L 156.6,458.2 L 178.2,457.6 L 199.7,456.1 L 221.3,456.5 L 242.8,455.9 L 264.4,457.0 L 285.9,456.2 L 307.5,456.9 L 329.0,456.7 L 350.6,455.9 L 372.1,456.2 L 393.7,456.3 L 415.2,456.9 L 436.8,455.8 L 458.3,457.4 L 479.9,457.8 L 501.4,456.0 L 523.0,456.5 L 544.5,456.1 L 566.1,458.0 L 587.6,456.3 L 609.2,456.7 L 630.7,456.3 L 652.3,456.6 L 673.8,457.8 L 695.4,458.0 L 716.9,456.0 L 738.5,457.3 L 760.0,457.0" fill="none" stroke="#1f2328" stroke-width="3" stroke-linecap="round" stroke-linejoin="round"/>
<path d="M 92.0,456.9 L 104.2,457.6 L 116.4,456.7 L 137.9,455.2 L 159.3,456.7 L 180.8,455.0 L 202.2,455.7 L 223.7,455.1 L 245.1,456.3 L 259.8,455.7 L 275.4,455.1 L 276.9,454.5 L 282.0,454.0 L 284.7,448.3 L 285.7,437.4 L 286.7,434.6 L 287.6,433.9 L 289.3,433.0 L 290.8,431.9 L 291.3,430.0 L 293.3,429.3 L 294.7,428.4 L 297.9,427.8 L 299.4,427.3 L 303.0,426.5 L 305.2,425.5 L 308.6,424.9 L 311.1,423.9 L 314.5,422.9 L 316.2,422.2 L 318.4,421.6 L 323.1,420.5 L 325.0,419.3 L 326.7,418.7 L 328.2,417.9 L 329.6,416.7 L 331.4,415.4 L 334.5,414.5 L 336.0,413.8 L 337.2,412.5 L 339.4,411.7 L 341.1,409.9 L 342.6,409.6 L 343.8,408.8 L 345.0,408.0 L 346.0,406.9 L 347.7,405.4 L 348.9,404.0 L 350.9,402.6 L 352.4,401.8 L 353.6,400.7 L 355.5,399.2 L 356.8,398.8 L 358.0,397.8 L 359.0,396.8 L 362.9,395.6 L 365.3,394.9 L 367.0,394.2 L 368.7,393.5 L 369.7,392.3 L 371.9,391.7 L 373.6,391.2 L 376.3,390.0 L 377.5,388.6 L 378.3,387.5 L 380.7,385.5 L 382.2,385.2 L 383.4,383.8 L 385.1,383.1 L 386.1,381.9 L 387.5,381.5 L 389.5,380.6 L 391.0,379.9 L 392.7,378.9 L 393.1,378.2 L 394.6,377.3 L 396.3,376.7 L 399.0,375.3 L 401.5,374.8 L 402.9,374.1 L 403.7,373.2 L 406.6,372.2 L 408.3,371.4 L 410.2,370.2 L 411.2,369.8 L 412.2,368.8 L 414.9,367.6 L 415.6,366.8 L 417.1,366.2 L 419.0,365.3 L 420.5,363.9 L 421.5,363.1 L 422.0,362.4 L 423.2,361.6 L 425.6,361.0 L 426.4,360.1 L 427.8,359.4 L 429.5,358.5 L 432.7,357.5 L 436.1,357.1 L 437.8,356.5 L 438.8,355.3 L 440.0,354.6 L 445.2,353.6 L 445.9,352.6 L 447.1,352.2 L 448.3,350.6 L 451.3,349.7 L 452.3,347.7 L 453.5,346.8 L 455.7,346.4 L 457.4,345.4 L 459.6,344.5 L 461.8,343.4 L 463.5,342.8 L 465.4,341.9 L 465.9,341.2 L 467.9,340.2 L 469.6,338.9 L 470.6,338.0 L 472.8,337.4 L 475.0,335.8 L 475.7,335.0 L 478.6,333.7 L 480.3,333.1 L 481.1,332.7 L 482.5,331.1 L 485.2,330.1 L 486.7,327.5 L 487.7,326.8 L 490.4,326.2 L 491.6,325.7 L 492.3,324.9 L 493.8,322.6 L 494.8,321.8 L 497.2,321.0 L 498.7,320.4 L 499.9,319.2 L 501.6,318.5 L 503.8,317.5 L 505.5,316.8 L 506.2,315.9 L 507.5,313.5 L 508.2,312.9 L 510.4,312.0 L 512.3,310.9 L 513.3,310.1 L 514.5,309.3 L 516.0,308.4 L 518.0,307.3 L 518.7,306.1 L 519.7,303.9 L 522.8,303.1 L 524.8,301.9 L 525.8,301.2 L 527.2,300.3 L 528.0,299.6 L 529.7,298.2 L 530.9,297.4 L 531.9,296.1 L 533.3,295.3 L 535.3,294.1 L 536.3,293.0 L 537.7,292.4 L 538.7,290.9 L 539.9,290.4 L 542.1,289.5 L 544.3,288.2 L 544.8,287.2 L 546.5,286.2 L 548.5,285.0 L 549.5,275.9 L 550.2,272.9 L 551.2,271.3 L 553.1,269.3 L 553.9,268.7 L 555.6,267.4 L 556.3,263.5 L 557.8,262.1 L 559.0,260.9 L 559.7,260.5 L 560.7,257.0 L 561.7,256.1 L 563.1,255.3 L 563.9,252.2 L 565.6,250.9 L 567.0,249.6 L 568.0,248.6 L 569.5,247.9 L 571.0,245.2 L 572.4,244.9 L 573.9,243.7 L 574.6,242.9 L 576.6,241.7 L 578.8,240.7 L 579.3,240.3 L 580.5,239.7 L 581.2,238.4 L 582.4,237.5 L 583.9,236.6 L 584.6,235.5 L 585.9,234.6 L 586.8,232.5 L 588.1,231.2 L 589.8,230.0 L 591.0,229.6 L 592.0,228.6 L 593.2,227.8 L 595.1,226.8 L 596.1,226.1 L 597.8,225.4 L 598.8,224.2 L 600.8,222.9 L 602.0,221.6 L 602.7,220.5 L 603.7,219.5 L 605.6,218.6 L 606.6,217.0 L 608.1,216.0 L 610.0,214.4 L 611.5,213.1 L 612.5,212.7 L 613.5,211.5 L 615.4,210.2 L 616.9,208.9 L 618.3,207.5 L 619.1,206.8 L 620.5,206.2 L 621.5,205.7 L 623.2,205.0 L 624.4,203.6 L 625.2,203.3 L 626.4,202.0 L 627.1,201.6 L 629.3,199.7 L 629.8,199.0 L 631.8,198.1 L 633.0,196.2 L 634.0,195.2 L 635.9,194.5 L 637.1,193.0 L 638.1,189.0 L 639.1,186.8 L 639.8,186.1 L 640.8,184.5 L 642.0,183.2 L 643.3,182.1 L 644.2,180.8 L 645.9,179.9 L 647.9,178.9 L 649.6,178.0 L 650.8,177.2 L 651.8,176.1 L 653.0,175.6 L 654.7,174.4 L 656.9,173.8 L 658.2,173.3 L 659.9,172.7 L 661.1,171.8 L 662.3,170.7 L 666.5,169.9 L 668.7,168.6 L 671.1,167.9 L 672.3,167.2 L 673.3,166.8 L 674.5,165.6 L 676.7,164.9 L 677.7,163.9 L 679.9,162.7 L 680.9,161.3 L 683.1,160.4 L 684.0,159.8 L 686.7,159.2 L 688.4,158.5 L 689.7,157.7 L 691.1,156.4 L 692.8,155.6 L 693.6,154.8 L 695.5,153.9 L 696.7,153.2 L 697.7,152.6 L 700.2,151.4 L 700.6,150.6 L 702.6,149.7 L 703.6,148.6 L 705.8,147.3 L 706.3,146.8 L 707.2,143.5 L 708.5,141.9 L 709.7,140.6 L 710.2,140.3 L 711.4,138.9 L 712.9,138.0 L 714.1,137.2 L 715.8,135.1 L 716.5,134.6 L 718.0,133.7 L 719.7,133.1 L 721.4,132.7 L 722.9,131.7 L 724.3,130.9 L 725.1,130.2 L 727.3,129.1 L 728.5,127.8 L 729.7,126.9 L 731.2,126.0 L 732.6,125.2 L 733.6,124.4 L 734.8,124.0 L 736.3,123.3 L 739.2,122.6 L 741.2,121.7 L 741.7,119.5 L 743.1,117.7 L 744.1,117.2 L 746.1,116.4 L 747.8,115.9 L 749.0,115.3 L 750.7,114.2 L 752.2,113.5 L 755.6,112.5 L 756.3,112.5 L 757.6,111.9 L 758.0,111.5 L 759.0,110.9 L 760.0,110.7" fill="none" stroke="#c94f35" stroke-width="3" stroke-linecap="round" stroke-linejoin="round"/>
<circle cx="92.0" cy="456.9" r="4" fill="#c94f35"/>
<circle cx="291.8" cy="429.6" r="4" fill="#c94f35"/>
<circle cx="324.8" cy="419.5" r="4" fill="#c94f35"/>
<circle cx="346.0" cy="406.9" r="4" fill="#c94f35"/>
<circle cx="368.2" cy="393.9" r="4" fill="#c94f35"/>
<circle cx="388.0" cy="381.2" r="4" fill="#c94f35"/>
<circle cx="409.8" cy="370.5" r="4" fill="#c94f35"/>
<circle cx="427.8" cy="359.4" r="4" fill="#c94f35"/>
<circle cx="452.7" cy="347.1" r="4" fill="#c94f35"/>
<circle cx="475.0" cy="335.8" r="4" fill="#c94f35"/>
<circle cx="494.8" cy="321.8" r="4" fill="#c94f35"/>
<circle cx="514.0" cy="310.0" r="4" fill="#c94f35"/>
<circle cx="532.9" cy="295.7" r="4" fill="#c94f35"/>
<circle cx="550.4" cy="272.5" r="4" fill="#c94f35"/>
<circle cx="565.1" cy="251.1" r="4" fill="#c94f35"/>
<circle cx="581.9" cy="237.8" r="4" fill="#c94f35"/>
<circle cx="598.3" cy="224.7" r="4" fill="#c94f35"/>
<circle cx="615.7" cy="209.9" r="4" fill="#c94f35"/>
<circle cx="630.8" cy="198.4" r="4" fill="#c94f35"/>
<circle cx="646.4" cy="179.3" r="4" fill="#c94f35"/>
<circle cx="668.7" cy="168.6" r="4" fill="#c94f35"/>
<circle cx="689.9" cy="157.5" r="4" fill="#c94f35"/>
<circle cx="707.0" cy="144.2" r="4" fill="#c94f35"/>
<circle cx="723.9" cy="131.2" r="4" fill="#c94f35"/>
<circle cx="741.9" cy="119.1" r="4" fill="#c94f35"/>
<circle cx="760.0" cy="110.7" r="4" fill="#c94f35"/>
<text x="790" y="529" font-size="12" text-anchor="end" fill="#818b98">updated through 2026-08-30</text>
</svg>
